<svg xmlns="http://www.w3.org/2000/svg" viewBox="0 0 908.83 111.24">
  <defs>
    <style>
      .cls-1 {
        fill: #231f20;
      }
    </style>
  </defs>
  <title>Idainstitute_logo</title>
  <g id="Rentegning">
    <path class="cls-1" d="M250.45,477.44c26,0,47-18.11,47-40.45H203.41C203.41,459.33,224.47,477.44,250.45,477.44Zm-78.23-67.28c-17.22,0-31.2,12-31.2,26.83h62.39C203.41,422.17,189.45,410.17,172.22,410.17Zm207.54-44c-45.44,0-82.29,31.7-82.29,70.79h164.6C462.07,397.91,425.23,366.2,379.76,366.2Z" transform="translate(-141.02 -366.2)"/>
    <g>
      <path class="cls-1" d="M571.45,412.14c0-8.36,5.93-13.83,12.95-13.83s12.85,5.47,12.85,13.83h0c0,8.36-5.83,14-12.85,14S571.45,420.5,571.45,412.14Zm-15,0c0,16.7,11.77,26,24.12,26,7.81,0,12.86-3.65,16.53-8.29V437h15V368.23h-15V393.8a20.85,20.85,0,0,0-16.53-7.41C568,386.39,556.41,395.47,556.41,412.14Z" transform="translate(-141.02 -366.2)"/>
      <path class="cls-1" d="M635.41,412.14c0-8.36,5.93-13.83,12.95-13.83s12.85,5.47,12.85,13.83h0c0,8.36-5.83,14-12.85,14S635.41,420.5,635.41,412.14Zm-15,0c0,16.7,11.77,26,24.12,26,7.81,0,12.86-3.65,16.53-8.29V437h15V387.31H661v6.49a20.85,20.85,0,0,0-16.53-7.41C631.93,386.39,620.37,395.47,620.37,412.14Z" transform="translate(-141.02 -366.2)"/>
      <g>
        <rect class="cls-1" x="391.03" y="2.03" width="15.82" height="12.51"/>
        <rect class="cls-1" x="391.43" y="21.11" width="15.03" height="49.68"/>
      </g>
      <path class="cls-1" d="M691.08,374.62v-6.39h6.29v6.39ZM691.7,437V388.3h5.05V437Z" transform="translate(-141.02 -366.2)"/>
      <path class="cls-1" d="M853.81,374.62v-6.39h6.29v6.39Zm.62,62.37V388.3h5.05V437Z" transform="translate(-141.02 -366.2)"/>
      <path class="cls-1" d="M807.15,423.63c0,8.81-8,14.51-18.15,14.51a37.81,37.81,0,0,1-21.55-7.07l3-3.72a32.36,32.36,0,0,0,18.86,6.4c7.12,0,12.68-3.8,12.68-9.55s-6.6-7.92-13.92-9.83c-8.56-2.29-18-4.65-18-13.46,0-7.91,7.12-13.74,17.32-13.74A37.55,37.55,0,0,1,806,392.5l-2.68,3.92a31.86,31.86,0,0,0-16.18-4.87c-7.22,0-12,3.84-12,8.78,0,5.57,7.11,7.54,14.64,9.55C798.28,412.08,807.15,414.94,807.15,423.63Z" transform="translate(-141.02 -366.2)"/>
      <path class="cls-1" d="M752.41,437V408.07c0-10-6.08-16.61-16.7-16.61-10.31,0-18.25,6.62-18.25,16.75V437H712.4V388.3h5.06v8.44c3.51-5.73,9.38-9.58,19-9.58,13.3,0,21,8.4,21,20V437Z" transform="translate(-141.02 -366.2)"/>
      <path class="cls-1" d="M916.15,388.3v28.93c0,10,5.52,16.61,16.14,16.61,10.31,0,17.68-6.62,17.68-16.75V388.3H955V437H950v-8.44c-3.51,5.73-8.82,9.58-18.41,9.58-13.3,0-20.47-8.4-20.47-20V388.3Z" transform="translate(-141.02 -366.2)"/>
      <path class="cls-1" d="M834.24,438.14c-8.14,0-14.74-4.11-14.74-13.37V374.62h5.06V388.3H843v4.3H824.55v31.7c0,7,4.43,9.45,10.51,9.45a18.77,18.77,0,0,0,7.73-1.72v4.39A20.54,20.54,0,0,1,834.24,438.14Z" transform="translate(-141.02 -366.2)"/>
      <path class="cls-1" d="M893.28,438.14c-8.14,0-14.74-4.11-14.74-13.37V374.62h5.06V388.3H902v4.3H883.59v31.7c0,7,4.43,9.45,10.51,9.45a18.77,18.77,0,0,0,7.73-1.72v4.39A20.54,20.54,0,0,1,893.28,438.14Z" transform="translate(-141.02 -366.2)"/>
      <path class="cls-1" d="M986.44,438.14c-8.14,0-14.74-4.11-14.74-13.37V374.62h5.06V388.3h18.45v4.3H976.75v31.7c0,7,4.43,9.45,10.51,9.45A18.77,18.77,0,0,0,995,432v4.39A20.54,20.54,0,0,1,986.44,438.14Z" transform="translate(-141.02 -366.2)"/>
      <path class="cls-1" d="M1049.85,412.74a11.45,11.45,0,0,1-.1,1.81h-43.61c.92,12.12,10.31,19.19,20.62,19.19a24.42,24.42,0,0,0,18-7.63l3.51,2.86c-5.37,5.35-11.65,9.17-21.75,9.17-13.82,0-25.78-10.22-25.78-25.49,0-14.23,10.72-25.49,25-25.49C1040.47,387.16,1049.85,398.23,1049.85,412.74Zm-5.47-2.39c-.72-9.83-6.8-18.91-18.87-18.91-10.41,0-18.46,8.12-19.38,18.91Z" transform="translate(-141.02 -366.2)"/>
    </g>
    <text x="-141.02" y="-366.2"></text>
  </g>
</svg>
